<mxfile host="app.diagrams.net" modified="2021-02-16T06:59:20.459Z" agent="5.0 (Windows NT 10.0; Win64; x64) AppleWebKit/537.36 (KHTML, like Gecko) Chrome/88.0.4324.150 Safari/537.36" etag="CjPfd5aky0hcS_86749J" version="14.2.4" type="github">
  <diagram id="SGP0-K7Ieo4u0JSzEDuj" name="Page-1">
    <mxGraphModel dx="1422" dy="762" grid="1" gridSize="10" guides="1" tooltips="1" connect="1" arrows="1" fold="1" page="1" pageScale="1" pageWidth="827" pageHeight="1169" math="0" shadow="0">
      <root>
        <mxCell id="0" />
        <mxCell id="1" parent="0" />
        <mxCell id="GWbPV3JY_pYgFVm3MeyI-1" value="循环依赖&lt;br&gt;1.一级缓存，里面的都是实例对象&lt;br&gt;&lt;div&gt;private final Map&amp;lt;String, Object&amp;gt; singletonObjects = new ConcurrentHashMap&amp;lt;&amp;gt;(256);&lt;/div&gt;&lt;div&gt;&lt;br&gt;&lt;/div&gt;&lt;div&gt;2.二级缓存，提前暴露的对象&lt;/div&gt;&lt;div&gt;&lt;span&gt;	&lt;/span&gt;private final Map&amp;lt;String, ObjectFactory&amp;lt;?&amp;gt;&amp;gt; singletonFactories = new HashMap&amp;lt;&amp;gt;(16);&lt;/div&gt;&lt;div&gt;&lt;br&gt;&lt;/div&gt;&lt;div&gt;3.三级缓存，获取bean的方法，value是函数式接口&lt;/div&gt;&lt;div&gt;&lt;span&gt;	&lt;/span&gt;private final Map&amp;lt;String, Object&amp;gt; earlySingletonObjects = new HashMap&amp;lt;&amp;gt;(16);&lt;/div&gt;" style="rounded=0;whiteSpace=wrap;html=1;" vertex="1" parent="1">
          <mxGeometry x="180" y="30" width="580" height="180" as="geometry" />
        </mxCell>
        <mxCell id="GWbPV3JY_pYgFVm3MeyI-2" value="A" style="rounded=0;whiteSpace=wrap;html=1;" vertex="1" parent="1">
          <mxGeometry x="130" y="290" width="120" height="60" as="geometry" />
        </mxCell>
        <mxCell id="GWbPV3JY_pYgFVm3MeyI-3" value="B" style="rounded=0;whiteSpace=wrap;html=1;" vertex="1" parent="1">
          <mxGeometry x="630" y="300" width="120" height="60" as="geometry" />
        </mxCell>
      </root>
    </mxGraphModel>
  </diagram>
</mxfile>
